<svg width="1440" height="1024" viewBox="0 0 1440 1024" fill="none" xmlns="http://www.w3.org/2000/svg">
<rect y="184" width="1440" height="840" fill="#190C25"/>
<path d="M478.265 471.158C475.199 471.365 473.055 468.179 474.4 465.416L572.714 263.554C574.063 260.783 577.908 260.515 579.629 263.072L705.338 449.85C707.059 452.407 705.363 455.867 702.288 456.074L478.265 471.158Z" fill="#DBC9ED" fill-opacity="0.1"/>
<path d="M836.936 258.144C834.039 257.116 833.336 253.341 835.668 251.339L1615.47 -418.047C1617.81 -420.055 1621.44 -418.775 1622.01 -415.745L1810.74 597.325C1811.3 600.355 1808.37 602.858 1805.47 601.828L836.936 258.144Z" fill="#DBC9ED" fill-opacity="0.1"/>
<path d="M118.432 717.924C116.831 715.02 119.257 711.541 122.536 712.039L336.645 744.564C339.575 745.01 341.021 748.376 339.325 750.807L229.741 907.953C228.045 910.384 224.387 910.191 222.957 907.595L118.432 717.924Z" fill="#DBC9ED" fill-opacity="0.1"/>
<path d="M932.163 748.661L1157.5 650.011L1133.15 894.787L932.163 748.661Z" stroke="#DBC9ED" stroke-opacity="0.1" stroke-width="5"/>
<path d="M1125.05 506.476L1316.02 661.519L1087.31 752.085L1125.05 506.476Z" stroke="#DBC9ED" stroke-opacity="0.1" stroke-width="5"/>
<path d="M30.5637 310.815L157.092 151.9L224.034 343.687L30.5637 310.815Z" stroke="#DBC9ED" stroke-opacity="0.1" stroke-width="5"/>
</svg>
